<mxfile host="65bd71144e">
    <diagram id="M3_72ie4rDMov3f6Uv0h" name="Page-1">
        <mxGraphModel dx="1136" dy="782" grid="1" gridSize="10" guides="1" tooltips="1" connect="1" arrows="1" fold="1" page="1" pageScale="1" pageWidth="850" pageHeight="1100" math="0" shadow="0">
            <root>
                <mxCell id="0"/>
                <mxCell id="1" parent="0"/>
                <mxCell id="20" value="" style="rounded=0;whiteSpace=wrap;html=1;fillColor=#FFFFFF;" parent="1" vertex="1">
                    <mxGeometry width="850" height="500" as="geometry"/>
                </mxCell>
                <mxCell id="2" value="&lt;b&gt;&lt;font style=&quot;font-size: 14px&quot;&gt;ENUM&lt;br&gt;&lt;font color=&quot;#ff0000&quot;&gt;role&lt;/font&gt;&lt;/font&gt;&lt;/b&gt;&lt;br&gt;Admin, Teacher, Student" style="rounded=0;whiteSpace=wrap;html=1;fillColor=#FFFFFF;fontColor=#000000;strokeColor=#000000;strokeWidth=2;" parent="1" vertex="1">
                    <mxGeometry x="20" y="20" width="165" height="60" as="geometry"/>
                </mxCell>
                <mxCell id="3" value="&lt;b style=&quot;font-size: 14px&quot;&gt;ENUM&lt;br&gt;&lt;font color=&quot;#6600cc&quot;&gt;course_role&lt;br&gt;&lt;/font&gt;&lt;/b&gt;Assistant, Student" style="rounded=0;whiteSpace=wrap;html=1;fillColor=#FFFFFF;fontColor=#000000;strokeColor=#000000;strokeWidth=2;" parent="1" vertex="1">
                    <mxGeometry x="230" y="20" width="140" height="60" as="geometry"/>
                </mxCell>
                <mxCell id="4" value="&lt;b&gt;&lt;font style=&quot;font-size: 14px&quot;&gt;ENUM&lt;br&gt;&lt;font color=&quot;#cc0066&quot;&gt;submission_status&lt;br&gt;&lt;/font&gt;&lt;/font&gt;&lt;/b&gt;Success, Pending, Fail" style="rounded=0;whiteSpace=wrap;html=1;fillColor=#FFFFFF;fontColor=#000000;strokeColor=#000000;strokeWidth=2;" parent="1" vertex="1">
                    <mxGeometry x="420" y="20" width="160" height="60" as="geometry"/>
                </mxCell>
                <mxCell id="5" value="&lt;font color=&quot;#007fff&quot;&gt;&lt;b&gt;&lt;font style=&quot;font-size: 14px&quot;&gt;users&lt;/font&gt;&lt;/b&gt;&lt;br&gt;&lt;/font&gt;&lt;b&gt;email TEXT PK&lt;/b&gt;&lt;br&gt;name TEXT NOT NULL&lt;br&gt;avatar_url TEXT NOT NULL&lt;br&gt;gitlab_id TEXT NOT NULL&lt;br&gt;refresh_token TEXT&lt;br&gt;&lt;font color=&quot;#ff0000&quot;&gt;&lt;b&gt;role role NOT NULL&lt;/b&gt;&lt;/font&gt;" style="rounded=0;whiteSpace=wrap;html=1;fillColor=#FFFFFF;fontColor=#000000;strokeColor=#000000;strokeWidth=2;" parent="1" vertex="1">
                    <mxGeometry x="380" y="345" width="190" height="120" as="geometry"/>
                </mxCell>
                <mxCell id="6" value="&lt;b&gt;&lt;font color=&quot;#00cc66&quot;&gt;&lt;font style=&quot;font-size: 14px&quot;&gt;course&lt;/font&gt;&lt;br&gt;&lt;/font&gt;id uuid PK&lt;/b&gt;&lt;br&gt;name TEXT NOT NULL&lt;br&gt;description TEXT&lt;br&gt;gitlab_id TEXT NOT NULL&lt;br&gt;gitlab_name TEXT NOT NULL&lt;br&gt;&lt;b&gt;&lt;font color=&quot;#007fff&quot;&gt;creator_email TEXT NOT NULL&lt;/font&gt;&lt;/b&gt;&lt;br&gt;created_on TIMESTAMP NOT NULL&lt;br&gt;last_edited_on TIMESTAMP NOT NULL" style="rounded=0;whiteSpace=wrap;html=1;fillColor=#FFFFFF;fontColor=#000000;strokeWidth=2;strokeColor=#000000;" parent="1" vertex="1">
                    <mxGeometry x="355" y="120" width="240" height="150" as="geometry"/>
                </mxCell>
                <mxCell id="7" value="&lt;b style=&quot;font-size: 14px&quot;&gt;&lt;font color=&quot;#ff8000&quot;&gt;assignment&lt;br&gt;&lt;/font&gt;&lt;/b&gt;&lt;b&gt;id uuid PK&lt;/b&gt;&lt;br&gt;name TEXT NOT NULL&lt;br&gt;description TEXT&lt;br&gt;gitlab_name TEXT NOT NULL&lt;br&gt;&lt;b&gt;&lt;font color=&quot;#007fff&quot;&gt;author_email TEXT NOT NULL&lt;br&gt;&lt;/font&gt;&lt;font color=&quot;#00cc66&quot;&gt;course_id uuid NOT NULL&lt;/font&gt;&lt;/b&gt;&lt;br&gt;created_on DATE NOT NULL&lt;br&gt;last_edited_on DATE NOT NULL" style="rounded=0;whiteSpace=wrap;html=1;fillColor=#FFFFFF;fontColor=#000000;strokeWidth=2;strokeColor=#000000;" parent="1" vertex="1">
                    <mxGeometry x="70" y="120" width="210" height="150" as="geometry"/>
                </mxCell>
                <mxCell id="8" value="&lt;b&gt;&lt;font style=&quot;font-size: 14px&quot;&gt;submission&lt;/font&gt;&lt;br&gt;id uuid PK&lt;br&gt;&lt;/b&gt;result TEXT&lt;br&gt;points SMALLINT&lt;br&gt;&lt;b&gt;&lt;font color=&quot;#cc0066&quot;&gt;submission_status&amp;nbsp;&lt;/font&gt;&lt;/b&gt;&lt;b&gt;&lt;font color=&quot;#cc0066&quot;&gt;submission_status&amp;nbsp;&lt;/font&gt;&lt;/b&gt;&lt;font color=&quot;#cc0066&quot; style=&quot;font-weight: bold&quot;&gt;NOT NULL&lt;br&gt;&lt;/font&gt;&lt;font color=&quot;#007fff&quot; style=&quot;font-weight: bold&quot;&gt;submitter_email TEXT NOT NULL&lt;/font&gt;&lt;br&gt;submitted_on TIMESTAMP NOT NULL&lt;br&gt;&lt;font color=&quot;#ff8000&quot; style=&quot;font-weight: bold&quot;&gt;assignment_id uuid NOT NULL&lt;/font&gt;" style="rounded=0;whiteSpace=wrap;html=1;fillColor=#FFFFFF;fontColor=#000000;strokeColor=#000000;strokeWidth=2;" parent="1" vertex="1">
                    <mxGeometry x="20" y="340" width="310" height="130" as="geometry"/>
                </mxCell>
                <mxCell id="9" value="&lt;b style=&quot;font-size: 14px&quot;&gt;user_course&lt;br&gt;&lt;/b&gt;&lt;font color=&quot;#007fff&quot; style=&quot;font-weight: bold&quot;&gt;user_email TEXT PK&lt;br&gt;&lt;/font&gt;&lt;b&gt;&lt;font color=&quot;#00cc66&quot;&gt;course_id uuid PK&lt;br&gt;&lt;/font&gt;&lt;font color=&quot;#6600cc&quot;&gt;course_role course_role NOT NULL&lt;/font&gt;&lt;/b&gt;" style="rounded=0;whiteSpace=wrap;html=1;fillColor=#FFFFFF;fontColor=#000000;strokeColor=#000000;strokeWidth=2;" parent="1" vertex="1">
                    <mxGeometry x="610" y="360" width="220" height="90" as="geometry"/>
                </mxCell>
                <mxCell id="11" value="" style="endArrow=classic;html=1;fontColor=#FF0000;exitX=0.5;exitY=1;exitDx=0;exitDy=0;entryX=0.5;entryY=0;entryDx=0;entryDy=0;strokeColor=#007FFF;strokeWidth=2;" parent="1" source="6" target="5" edge="1">
                    <mxGeometry width="50" height="50" relative="1" as="geometry">
                        <mxPoint x="675" y="545" as="sourcePoint"/>
                        <mxPoint x="675" y="595" as="targetPoint"/>
                    </mxGeometry>
                </mxCell>
                <mxCell id="12" value="" style="endArrow=classic;html=1;fontColor=#FF0000;exitX=1;exitY=1;exitDx=0;exitDy=0;entryX=0;entryY=0;entryDx=0;entryDy=0;strokeColor=#007FFF;strokeWidth=2;" parent="1" source="7" target="5" edge="1">
                    <mxGeometry width="50" height="50" relative="1" as="geometry">
                        <mxPoint x="480" y="255" as="sourcePoint"/>
                        <mxPoint x="480" y="315" as="targetPoint"/>
                    </mxGeometry>
                </mxCell>
                <mxCell id="13" value="" style="endArrow=classic;html=1;fontColor=#FF0000;exitX=1;exitY=0.5;exitDx=0;exitDy=0;entryX=0;entryY=0.5;entryDx=0;entryDy=0;strokeColor=#00CC66;strokeWidth=2;" parent="1" source="7" target="6" edge="1">
                    <mxGeometry width="50" height="50" relative="1" as="geometry">
                        <mxPoint x="570" y="35" as="sourcePoint"/>
                        <mxPoint x="715" y="255" as="targetPoint"/>
                    </mxGeometry>
                </mxCell>
                <mxCell id="14" value="" style="endArrow=classic;html=1;fontColor=#FF0000;exitX=0.5;exitY=0;exitDx=0;exitDy=0;entryX=0.5;entryY=1;entryDx=0;entryDy=0;strokeColor=#FF8000;strokeWidth=2;" parent="1" source="8" target="7" edge="1">
                    <mxGeometry width="50" height="50" relative="1" as="geometry">
                        <mxPoint x="400" y="175" as="sourcePoint"/>
                        <mxPoint x="545" y="395" as="targetPoint"/>
                    </mxGeometry>
                </mxCell>
                <mxCell id="15" value="" style="endArrow=classic;html=1;fontColor=#FF0000;exitX=1;exitY=0.5;exitDx=0;exitDy=0;entryX=0;entryY=0.5;entryDx=0;entryDy=0;strokeColor=#007FFF;strokeWidth=2;" parent="1" source="8" target="5" edge="1">
                    <mxGeometry width="50" height="50" relative="1" as="geometry">
                        <mxPoint x="399" y="175" as="sourcePoint"/>
                        <mxPoint x="544" y="395" as="targetPoint"/>
                    </mxGeometry>
                </mxCell>
                <mxCell id="17" value="" style="endArrow=classic;html=1;fontColor=#FF0000;exitX=0;exitY=0.5;exitDx=0;exitDy=0;entryX=1;entryY=0.5;entryDx=0;entryDy=0;strokeColor=#007FFF;strokeWidth=2;" parent="1" source="9" target="5" edge="1">
                    <mxGeometry width="50" height="50" relative="1" as="geometry">
                        <mxPoint x="465" y="170" as="sourcePoint"/>
                        <mxPoint x="465" y="255" as="targetPoint"/>
                    </mxGeometry>
                </mxCell>
                <mxCell id="18" value="" style="endArrow=classic;html=1;fontColor=#FF0000;exitX=0.5;exitY=0;exitDx=0;exitDy=0;entryX=1;entryY=0.5;entryDx=0;entryDy=0;strokeColor=#00CC66;strokeWidth=2;" parent="1" source="9" target="6" edge="1">
                    <mxGeometry width="50" height="50" relative="1" as="geometry">
                        <mxPoint x="590" y="140" as="sourcePoint"/>
                        <mxPoint x="685" y="140" as="targetPoint"/>
                        <Array as="points">
                            <mxPoint x="720" y="195"/>
                        </Array>
                    </mxGeometry>
                </mxCell>
            </root>
        </mxGraphModel>
    </diagram>
</mxfile>